<?xml version="1.0" encoding="UTF-8" standalone="no"?>
<svg width="159px" height="58px" viewBox="0 0 159 58" version="1.1" xmlns="http://www.w3.org/2000/svg" xmlns:xlink="http://www.w3.org/1999/xlink" style="background: #333333;">
    <!-- Generator: Sketch 39.1 (31720) - http://www.bohemiancoding.com/sketch -->
    <title>banner</title>
    <desc>Created with Sketch.</desc>
    <defs></defs>
    <g id="Page-1" stroke="none" stroke-width="1" fill="none" fill-rule="evenodd">
        <g id="banner">
            <text id="밤새미" font-family="GodoB, Godo" font-size="40" font-weight="normal" letter-spacing="-1.76666927" fill="#FFFFFF">
                <tspan x="52" y="44">밤새미</tspan>
            </text>
            <g id="Group" transform="translate(3.000000, 5.000000)">
                <polygon id="Path-6" fill="#B0D4FF" points="11.0122162 22.68719 17.7417002 15.2101633 23.021272 21.8235655 27.1532354 28.9205429 20.4065587 33.5601408 12.893377 34.621282 8.47630246 29.7242313"></polygon>
                <ellipse id="Oval-2" fill="#D8D8D8" cx="39.7197607" cy="36.9141503" rx="6.11830561" ry="5.28603801"></ellipse>
                <ellipse id="Oval-2-Copy" fill="#333333" cx="37.2254315" cy="36.3793479" rx="4.50822519" ry="4.16475722"></ellipse>
                <path d="M28.3379247,9.55532794 C28.2960686,9.50622192 28.2228203,9.4843964 28.1579437,9.50804056 C28.0951593,9.52986561 22.0741575,11.7105521 22.8317529,16.5448021 C21.1784367,15.2534866 13.4643547,8.63321969 18.1836316,0.84894983 C18.2129311,0.801661976 18.2045594,0.739824086 18.1627038,0.701630355 C18.1187545,0.659799347 18.049692,0.648886586 17.9952794,0.670711642 C17.8948247,0.707086735 15.4880979,1.60009538 13.5689952,3.86080751 C11.7984814,5.94146282 10.1514432,9.62080311 12.3698177,15.3171426 C13.1755478,17.9961681 11.6540779,20.1677614 10.8399766,21.0898701 C11.0387928,20.4551244 11.2920227,19.3784216 11.2501665,18.1416685 C11.1852894,16.3301893 10.4339721,13.8312202 7.2257011,12.2161661 C7.17547377,12.1907033 7.11059666,12.1925224 7.0645552,12.2234411 C7.01642054,12.2561789 6.99549275,12.3071036 7.00804931,12.3580292 C7.02060588,12.4053166 8.21978393,17.1649974 6.11442116,19.3675093 C4.29786584,21.2662892 2.51688807,24.5727849 3.47957922,27.6355682 C4.28740194,30.1963747 6.81132585,32.1515356 10.9822874,33.4446703 C12.0517113,33.7302146 13.0730004,33.9466465 14.2052082,34.1303406 C14.2784565,34.1448907 14.3496116,34.1048783 14.3726326,34.0430404 C14.3956536,33.9793844 14.3579828,33.9102715 14.2910131,33.88299 C12.1500727,33.0772821 9.94216313,31.3967523 11.5829228,27.98295 C13.1462482,25.0402052 12.8658125,23.5215449 12.5539846,22.8740683 C13.3618073,23.270557 14.9669894,24.2963342 14.5651707,26.1005388 C14.5547063,26.153283 14.5819132,26.2078454 14.6363259,26.2351269 C14.6907391,26.2624083 14.7556156,26.2587706 14.805843,26.2242146 C14.8560703,26.1914768 19.6799878,22.7394802 17.4888201,18.5126949 C18.5687078,19.0546835 21.4337587,20.9498257 19.7448644,25.2984681 C19.1818998,27.1663292 20.7117409,28.5122077 20.7787106,28.5667706 C20.828938,28.6104207 20.9063716,28.6176952 20.9649702,28.5831392 C21.0214761,28.5522205 21.0465898,28.4867449 21.0214761,28.4285447 C20.9712488,28.3121444 19.8264839,25.6367567 22.3064585,24.1599279 C22.1767048,24.8455983 21.9695169,26.5443154 22.8568665,27.47188 C23.6542259,28.3048699 24.4243784,29.6725734 24.1878909,31.0093577 C24.0225597,31.9496537 23.3842536,32.7426312 22.2813454,33.3610073 C22.2185609,33.3992015 22.1955399,33.4664953 22.2269322,33.5246955 C22.260417,33.5847143 22.3378507,33.6119957 22.4110991,33.5919893 C25.1317464,32.809925 28.7020726,31.2567083 30.2591201,28.2903198 C31.4059781,26.1041765 31.2615741,23.4833512 29.8280024,20.5005936 C25.5000802,12.3543915 28.2918833,9.74265979 28.3211823,9.71719699 C28.3672237,9.67354688 28.3755955,9.60625307 28.3379247,9.55532794 Z" id="Shape" fill="#3367D6"></path>
                <path d="M11.0031803,32.4796368 C1.23513394,32.9889351 -0.391091426,24.3035114 0.0696380306,33.0497031 C0.530367487,41.7958949 8.82242865,48.4732163 18.590475,47.963918 C28.3585214,47.4546196 35.9035925,39.9515625 35.4428631,31.2053708 C34.9821336,22.459179 20.7712267,31.9703384 11.0031803,32.4796368" id="Oval" fill="#D8D8D8"></path>
            </g>
        </g>
    </g>
</svg>