<?xml version="1.0" encoding="UTF-8" standalone="no"?>
<svg width="16px" height="16px" viewBox="0 0 16 16" version="1.1" xmlns="http://www.w3.org/2000/svg" xmlns:xlink="http://www.w3.org/1999/xlink">
    <!-- Generator: Sketch 39.1 (31720) - http://www.bohemiancoding.com/sketch -->
    <title>Favicon</title>
    <desc>Created with Sketch.</desc>
    <defs></defs>
    <g id="Page-1" stroke="none" stroke-width="1" fill="none" fill-rule="evenodd">
        <g id="Favicon">
            <rect id="Rectangle" fill="#333333" x="8.8817842e-16" y="8.8817842e-16" width="16" height="16" rx="5"></rect>
            <g id="Group-2" transform="translate(3.000000, 2.000000)">
                <ellipse id="Oval-2" fill="#D8D8D8" cx="10.2767601" cy="9.57856414" rx="1.58299944" ry="1.37163266"></ellipse>
                <g id="Group" transform="translate(0.610088, 0.000000)">
                    <polygon id="Path-6" fill="#B0D4FF" points="2.23912063 5.88692148 3.98025129 3.9467663 5.34624372 5.66282631 6.41531351 7.50436548 4.66973458 8.70825846 2.72583653 8.98360568 1.58299944 7.7129083"></polygon>
                    <path d="M7.23059063,5.32178225 C6.06407364,3.16053914 6.81655614,2.46762888 6.82445318,2.46087343 C6.83686287,2.44929275 6.83911933,2.43143925 6.82896582,2.41792846 C6.81768423,2.4049003 6.7979414,2.39910984 6.78045503,2.40538279 C6.76353257,2.41117313 5.14067508,2.98972415 5.34487188,4.27228374 C4.89924893,3.92968889 2.82005079,2.17328684 4.09205073,0.108066842 C4.09994792,0.0955210512 4.09769145,0.0791150362 4.08641,0.0689819783 C4.07456422,0.0578839261 4.05594962,0.0549886961 4.04128362,0.0607790325 C4.01420779,0.0704295933 3.36551597,0.30735089 2.84825485,0.907133271 C2.37104328,1.45914534 1.92711246,2.43529947 2.52503717,3.94657728 C2.74220785,4.65734105 2.33212181,5.23347959 2.11269482,5.47812133 C2.16628229,5.30971895 2.23453605,5.02406236 2.22325445,4.69594329 C2.20576794,4.21534549 2.00326327,3.55235191 1.138529,3.12386701 C1.12499108,3.11711156 1.10750458,3.11759418 1.09509489,3.12579712 C1.08212102,3.13448269 1.0764803,3.14799335 1.0798647,3.16150426 C1.08324911,3.17404993 1.40646693,4.43682577 0.8390026,5.02116725 C0.349381351,5.52492652 -0.130650578,6.40216243 0.128826265,7.21473977 C0.346560988,7.89413924 1.02684128,8.41285679 2.15105224,8.75593425 C2.43929704,8.83169112 2.71456798,8.88911199 3.0197351,8.93784729 C3.03947793,8.94170752 3.05865657,8.93109196 3.06486148,8.91468595 C3.0710664,8.89779756 3.06091289,8.87946143 3.04286234,8.87222348 C2.46580869,8.65846365 1.87070463,8.21260762 2.31294317,7.30690253 C2.73431066,6.52617223 2.65872404,6.12326129 2.57467619,5.9514813 C2.79241091,6.05667248 3.22506014,6.32881817 3.11675682,6.80748598 C3.11393632,6.82147939 3.12126946,6.83595516 3.13593546,6.84319312 C3.15060161,6.85043107 3.16808798,6.84946595 3.18162589,6.84029801 C3.19516381,6.83161244 4.49536781,5.91577417 3.90477624,4.79437913 C4.19584141,4.93817243 4.96806659,5.44096658 4.51285417,6.59469115 C4.36111675,7.09024747 4.7734591,7.44731822 4.79150966,7.46179412 C4.80504757,7.47337479 4.82591849,7.47530478 4.84171272,7.46613684 C4.85694291,7.4579339 4.86371187,7.44056276 4.85694291,7.42512187 C4.843405,7.39424007 4.53485332,6.68444142 5.20328782,6.29262866 C5.16831495,6.4745417 5.11247101,6.92522294 5.35164084,7.17131218 C5.56655535,7.39231008 5.77413671,7.75517117 5.71039558,8.10982918 C5.66583339,8.35929615 5.49378895,8.56967849 5.19651901,8.7337379 C5.17959654,8.74387108 5.17339163,8.76172459 5.18185286,8.77716549 C5.19087814,8.79308888 5.21174906,8.80032683 5.23149188,8.79501899 C5.9647956,8.587532 6.92711563,8.17545299 7.34679099,7.38844986 C7.65590685,6.8084511 7.61698524,6.11312823 7.23059063,5.32178225 L7.23059063,5.32178225 Z" id="Shape" fill="#3367D6"></path>
                </g>
                <ellipse id="Oval-2-Copy" fill="#333333" cx="9.63139811" cy="9.43979244" rx="1.16642064" ry="1.08068028"></ellipse>
                <path d="M2.84687123,8.4278869 C0.31956827,8.56004074 -0.101187738,6.30632808 0.0180175641,8.57580896 C0.137222866,10.8452898 2.28264171,12.5779358 4.80994468,12.4457819 C7.33724764,12.3136281 9.28939651,10.3667185 9.1701912,8.09723759 C9.0509859,5.8277567 5.3741742,8.29573307 2.84687123,8.4278869" id="Oval" fill="#D8D8D8"></path>
            </g>
        </g>
    </g>
</svg>