<svg width="16" height="16" viewBox="0 0 16 16" xmlns="http://www.w3.org/2000/svg"><title>Favicon</title><g fill="none" fill-rule="evenodd"><rect fill="#333" width="16" height="16" rx="5"/><g transform="translate(3 2)"><ellipse fill="#D8D8D8" cx="10.277" cy="9.579" rx="1.583" ry="1.372"/><path fill="#B0D4FF" d="M2.85 5.887l1.74-1.94 1.366 1.716 1.07 1.841L5.28 8.708l-1.944.276-1.143-1.271z"/><path d="M7.84 5.322C6.675 3.16 7.428 2.468 7.436 2.46a.032.032 0 0 0 .004-.043.045.045 0 0 0-.048-.013c-.017.006-1.64.585-1.436 1.867C5.509 3.93 3.43 2.173 4.702.108A.03.03 0 0 0 4.696.07a.044.044 0 0 0-.045-.008c-.027.01-.675.246-1.193.846-.477.552-.92 1.528-.323 3.04.217.71-.193 1.286-.412 1.531.053-.168.122-.454.11-.782-.017-.48-.22-1.144-1.084-1.572a.045.045 0 0 0-.044.002.033.033 0 0 0-.015.036c.003.012.327 1.275-.24 1.86-.49.503-.97 1.38-.711 2.193.218.68.898 1.198 2.022 1.54.288.077.564.134.869.183.02.004.039-.007.045-.023.006-.017-.004-.036-.022-.043-.577-.214-1.172-.66-.73-1.565.421-.78.346-1.184.262-1.356.217.106.65.378.542.856a.032.032 0 0 0 .019.036.046.046 0 0 0 .046-.003c.013-.008 1.313-.924.723-2.046.29.144 1.063.647.608 1.8-.152.496.26.853.279.868a.044.044 0 0 0 .05.004c.015-.008.022-.025.015-.04-.014-.032-.322-.742.346-1.133-.035.182-.09.632.149.878.215.221.422.584.358.939-.044.25-.216.46-.513.624-.017.01-.024.028-.015.043.009.016.03.023.05.018.733-.207 1.695-.62 2.115-1.407.309-.58.27-1.275-.116-2.066z" fill="#3367D6"/><ellipse fill="#333" cx="9.631" cy="9.44" rx="1.166" ry="1.081"/><path d="M2.847 8.428C.32 8.56-.101 6.306.018 8.576c.12 2.27 2.265 4.002 4.792 3.87 2.527-.132 4.48-2.08 4.36-4.349-.119-2.27-3.796.199-6.323.33" fill="#D8D8D8"/></g></g></svg>