<svg width="159" height="58" viewBox="0 0 159 58" xmlns="http://www.w3.org/2000/svg" style="background:#333"><title>banner</title><g fill="none" fill-rule="evenodd"><text font-family="GodoB, Godo" font-size="40" letter-spacing="-1.767" fill="#FFF"><tspan x="52" y="44">밤새미</tspan></text><g transform="translate(3 5)"><path fill="#B0D4FF" d="M11.012 22.687l6.73-7.477 5.28 6.614 4.131 7.097-6.746 4.64-7.514 1.06-4.417-4.897z"/><ellipse fill="#D8D8D8" cx="39.72" cy="36.914" rx="6.118" ry="5.286"/><ellipse fill="#333" cx="37.225" cy="36.379" rx="4.508" ry="4.165"/><path d="M28.338 9.555a.166.166 0 0 0-.18-.047c-.063.022-6.084 2.203-5.326 7.037-1.654-1.292-9.368-7.912-4.648-15.696a.116.116 0 0 0-.021-.147.162.162 0 0 0-.168-.031c-.1.036-2.507.93-4.426 3.19-1.77 2.08-3.418 5.76-1.2 11.456.807 2.68-.715 4.85-1.529 5.773a9.069 9.069 0 0 0 .41-2.948c-.065-1.812-.816-4.31-4.024-5.926a.164.164 0 0 0-.161.007c-.049.033-.07.084-.057.135.013.047 1.212 4.807-.894 7.01-1.816 1.898-3.597 5.205-2.634 8.268.807 2.56 3.331 4.516 7.502 5.809 1.07.285 2.091.502 3.223.685a.148.148 0 0 0 .168-.087c.023-.064-.015-.133-.082-.16-2.14-.806-4.349-2.486-2.708-5.9 1.563-2.943 1.283-4.461.971-5.109.808.397 2.413 1.422 2.011 3.227a.124.124 0 0 0 .071.134.17.17 0 0 0 .17-.01c.05-.034 4.874-3.486 2.683-7.712 1.08.542 3.945 2.437 2.256 6.785-.563 1.868.967 3.214 1.034 3.269.05.043.127.05.186.016a.121.121 0 0 0 .056-.154c-.05-.117-1.195-2.792 1.285-4.27-.13.687-.336 2.385.55 3.313.798.833 1.568 2.2 1.332 3.537-.165.94-.804 1.734-1.907 2.352-.062.038-.085.105-.054.164.033.06.11.087.184.067 2.72-.782 6.291-2.335 7.848-5.302 1.147-2.186 1.003-4.807-.431-7.79-4.328-8.146-1.536-10.757-1.507-10.783a.12.12 0 0 0 .017-.162z" fill="#3367D6"/><path d="M11.003 32.48C1.235 32.989-.39 24.304.07 33.05c.46 8.746 8.752 15.423 18.52 14.914 9.769-.51 17.314-8.012 16.853-16.759-.46-8.746-14.672.765-24.44 1.275" fill="#D8D8D8"/></g></g></svg>